<svg width="64" height="64" viewBox="0 0 64 64" fill="none" xmlns="http://www.w3.org/2000/svg">
<path fill-rule="evenodd" clip-rule="evenodd" d="M5.1442 21.3701C5.52419 20.9238 6.08085 20.6666 6.66701 20.6666H57.3337C57.9198 20.6666 58.4765 20.9238 58.8565 21.3701C59.2365 21.8164 59.4016 22.4069 59.3081 22.9856L53.7081 57.6522C53.5516 58.6211 52.7151 59.3333 51.7337 59.3333H12.267C11.2855 59.3333 10.4491 58.6211 10.2926 57.6522L4.6926 22.9856C4.59913 22.4069 4.76421 21.8164 5.1442 21.3701ZM9.01601 24.6666L13.9699 55.3333H50.0308L54.9847 24.6666H9.01601Z" fill="url(#paint0_linear_123_658)"/>
<path fill-rule="evenodd" clip-rule="evenodd" d="M15.333 22.6666C15.333 12.8929 22.6347 4.66663 31.9997 4.66663C41.3646 4.66663 48.6663 12.8929 48.6663 22.6666C48.6663 23.7712 47.7709 24.6666 46.6663 24.6666C45.5618 24.6666 44.6663 23.7712 44.6663 22.6666C44.6663 14.7673 38.835 8.66663 31.9997 8.66663C25.1644 8.66663 19.333 14.7673 19.333 22.6666C19.333 23.7712 18.4376 24.6666 17.333 24.6666C16.2284 24.6666 15.333 23.7712 15.333 22.6666Z" fill="url(#paint1_linear_123_658)"/>
<path d="M22.6667 37.3333C24.1394 37.3333 25.3333 36.1394 25.3333 34.6667C25.3333 33.1939 24.1394 32 22.6667 32C21.1939 32 20 33.1939 20 34.6667C20 36.1394 21.1939 37.3333 22.6667 37.3333Z" fill="url(#paint2_linear_123_658)"/>
<path fill-rule="evenodd" clip-rule="evenodd" d="M25.6565 42.879C25.0412 41.9694 23.806 41.7257 22.8908 42.3359C21.9718 42.9486 21.7234 44.1903 22.3361 45.1094L24.0002 44C22.3361 45.1094 22.3366 45.1101 22.3371 45.1109L22.3382 45.1126L22.3406 45.1161L22.3462 45.1244L22.3605 45.1453L22.4016 45.2039C22.4345 45.2503 22.4788 45.311 22.5343 45.3839C22.6453 45.5296 22.8022 45.7252 23.0054 45.9537C23.4103 46.4092 24.0074 47.0053 24.8002 47.6C26.3919 48.7937 28.8025 50 32.0002 50C35.1979 50 37.6085 48.7937 39.2002 47.6C39.993 47.0053 40.5901 46.4092 40.995 45.9537C41.1982 45.7252 41.3551 45.5296 41.4661 45.3839C41.5216 45.311 41.5659 45.2503 41.5989 45.2039L41.64 45.1453L41.6542 45.1244L41.6598 45.1161L41.6622 45.1126L41.6633 45.1109C41.6638 45.1101 41.6643 45.1094 40.0002 44L41.6643 45.1094C42.277 44.1903 42.0287 42.9486 41.1096 42.3359C40.1944 41.7257 38.9593 41.9694 38.3439 42.879C38.3446 42.878 38.3449 42.8775 38.3449 42.8775L38.3448 42.8776L38.3423 42.8814L38.3397 42.8853L38.3391 42.8858C38.3413 42.8827 38.3429 42.8804 38.3439 42.879C38.3416 42.8824 38.3393 42.8857 38.3371 42.8891L38.338 42.8877L38.3391 42.8858C38.3304 42.8981 38.3121 42.9233 38.2843 42.9598C38.2287 43.0328 38.1356 43.1498 38.0054 43.2962C37.7436 43.5907 37.3407 43.9946 36.8002 44.4C35.7252 45.2062 34.1359 46 32.0002 46C29.8645 46 28.2752 45.2062 27.2002 44.4C26.6597 43.9946 26.2568 43.5907 25.995 43.2962C25.8648 43.1498 25.7717 43.0328 25.7161 42.9598C25.6883 42.9233 25.6701 42.8981 25.6614 42.8858C25.6591 42.8827 25.6575 42.8804 25.6566 42.879" fill="url(#paint3_linear_123_658)"/>
<path d="M41.3337 37.3333C42.8064 37.3333 44.0003 36.1394 44.0003 34.6667C44.0003 33.1939 42.8064 32 41.3337 32C39.8609 32 38.667 33.1939 38.667 34.6667C38.667 36.1394 39.8609 37.3333 41.3337 37.3333Z" fill="url(#paint4_linear_123_658)"/>
<defs>
<linearGradient id="paint0_linear_123_658" x1="4.66699" y1="20.6666" x2="59.9917" y2="21.6323" gradientUnits="userSpaceOnUse">
<stop stop-color="#73E0A9"/>
<stop offset="1" stop-color="#5B68DF"/>
</linearGradient>
<linearGradient id="paint1_linear_123_658" x1="15.333" y1="4.66663" x2="49.0636" y2="5.36067" gradientUnits="userSpaceOnUse">
<stop stop-color="#73E0A9"/>
<stop offset="1" stop-color="#5B68DF"/>
</linearGradient>
<linearGradient id="paint2_linear_123_658" x1="20" y1="32" x2="25.3984" y2="32.0666" gradientUnits="userSpaceOnUse">
<stop stop-color="#73E0A9"/>
<stop offset="1" stop-color="#5B68DF"/>
</linearGradient>
<linearGradient id="paint3_linear_123_658" x1="22" y1="41.9998" x2="42.2281" y2="42.6241" gradientUnits="userSpaceOnUse">
<stop stop-color="#73E0A9"/>
<stop offset="1" stop-color="#5B68DF"/>
</linearGradient>
<linearGradient id="paint4_linear_123_658" x1="38.667" y1="32" x2="44.0653" y2="32.0666" gradientUnits="userSpaceOnUse">
<stop stop-color="#73E0A9"/>
<stop offset="1" stop-color="#5B68DF"/>
</linearGradient>
</defs>
</svg>
